<?xml version="1.0" encoding="UTF-8"?>
<svg version="1.1" xmlns="http://www.w3.org/2000/svg" width="1024" height="1024">
<path d="M0 0 C337.92 0 675.84 0 1024 0 C1024 337.92 1024 675.84 1024 1024 C686.08 1024 348.16 1024 0 1024 C0 686.08 0 348.16 0 0 Z " fill="#FEFEFE" transform="translate(0,0)"/>
<path d="M0 0 C53.13981923 -0.02205197 106.27963414 -0.04051365 159.41945664 -0.05106533 C165.69532787 -0.05231601 171.97119909 -0.05361034 178.24707031 -0.05493164 C179.49646556 -0.05519395 180.7458608 -0.05545626 182.0331165 -0.05572652 C202.25418812 -0.06007597 222.47525688 -0.06795954 242.69632681 -0.0771528 C263.45020198 -0.08650948 284.20407566 -0.09205988 304.95795286 -0.09408849 C317.76069181 -0.09545953 330.56342271 -0.09978745 343.36615919 -0.10791647 C352.14948143 -0.11320877 360.93279952 -0.11479864 369.71612324 -0.11350138 C374.78102959 -0.11286189 379.84592189 -0.11383147 384.91082573 -0.11920547 C389.55489367 -0.1240968 394.1989382 -0.12430125 398.84300725 -0.12089889 C400.51619324 -0.12047881 402.18938074 -0.12172597 403.8625638 -0.12488318 C419.53570269 -0.15271923 434.60481085 0.90419029 450 4 C451.01852051 4.19867676 451.01852051 4.19867676 452.05761719 4.40136719 C505.28264948 14.98487144 552.61242731 48.56726993 582.64331055 93.3046875 C599.06882934 118.4665676 608.63994787 146.36342943 613 176 C613.09643799 176.65387695 613.19287598 177.30775391 613.29223633 177.98144531 C615.55479013 195.34851014 615.17192536 214.76227943 612 232 C611.84402344 232.86077148 611.68804688 233.72154297 611.52734375 234.60839844 C607.7866784 254.62095807 601.73759451 273.11327958 592 291 C591.67386719 291.61069336 591.34773437 292.22138672 591.01171875 292.85058594 C586.38910286 301.47425085 581.11775205 309.36036894 575 317 C574.24847656 317.95648437 573.49695313 318.91296875 572.72265625 319.8984375 C559.99326477 335.54372434 545.41615992 350.24164679 529 362 C527.70162922 362.94634889 526.40345891 363.89297288 525.10546875 364.83984375 C515.71972847 371.64013577 515.71972847 371.64013577 513 373 C513.50403331 378.28184909 516.27102237 382.16015509 519 386.5625 C519.79144409 387.85994141 519.79144409 387.85994141 520.59887695 389.18359375 C521.76564971 391.09568843 522.93548583 393.00591621 524.10791016 394.91455078 C526.42280377 398.68947019 528.71845995 402.47587369 531.01325989 406.26303101 C533.52648274 410.41037112 536.04328491 414.55551581 538.5625 418.69921875 C541.50171204 423.53411835 544.43936381 428.36995959 547.375 433.20703125 C555.67287232 446.87924764 563.97972638 460.54595682 572.29833984 474.20556641 C575.78557092 479.93223024 579.27129431 485.65981196 582.75732422 491.38720703 C585.63591953 496.11649957 588.5148321 500.84559825 591.39453125 505.57421875 C592.53385475 507.44531215 593.67317766 509.3164059 594.8125 511.1875 C595.37501465 512.11103271 595.9375293 513.03456543 596.51708984 513.98608398 C599.85810545 519.47355952 603.19177234 524.96541774 606.51953125 530.4609375 C607.67623618 532.370044 608.83302847 534.27909754 609.98983765 536.18814087 C610.7383981 537.42415007 611.48647638 538.66045143 612.23403931 539.89706421 C613.2824446 541.63131227 614.33260011 543.36450191 615.3828125 545.09765625 C615.98496582 546.09289307 616.58711914 547.08812988 617.20751953 548.11352539 C618.49651323 550.18922309 619.84356982 552.22927311 621.22607422 554.24389648 C623 557 623 557 623 559 C608.25755192 559.23386884 593.51535011 559.41007136 578.77142239 559.51812172 C571.92502683 559.56963169 565.07978541 559.63981852 558.23413086 559.75439453 C551.62707714 559.86492411 545.02090666 559.92284986 538.41288948 559.94877243 C535.89254957 559.967244 533.372275 560.00331671 530.8524456 560.05730057 C527.32003237 560.12996478 523.79256236 560.13988958 520.25952148 560.13525391 C519.21870422 560.17120667 518.17788696 560.20715942 517.10552979 560.24420166 C512.64364844 560.18089283 510.05860792 560.06240618 506.82312012 556.81530952 C505.02541446 554.27804757 503.47869471 551.73311528 502 549 C501.31180176 547.89350098 500.62360352 546.78700195 499.91455078 545.64697266 C499.34720215 544.6626123 498.77985352 543.67825195 498.1953125 542.6640625 C497.53789063 541.5311377 496.88046875 540.39821289 496.203125 539.23095703 C495.86474609 538.64364807 495.52636719 538.05633911 495.17773438 537.45123291 C493.34008638 534.26336964 491.48657766 531.08476027 489.6328125 527.90625 C489.25223694 527.25334991 488.87166138 526.60044983 488.47955322 525.92776489 C484.39973543 518.94486339 480.20957407 512.03021975 476 505.125 C475.64004944 504.53427704 475.28009888 503.94355408 474.90924072 503.33493042 C473.20064972 500.53126634 471.49119707 497.72813031 469.78125 494.92529297 C466.1548326 488.96973742 462.57798693 482.98473662 459 477 C457.56339131 474.60363163 456.12546553 472.20805437 454.6875 469.8125 C452.24358407 465.74108082 449.80134113 461.66867924 447.36328125 457.59375 C442.29150064 449.12225285 437.19376978 440.66752854 432.05883789 432.23413086 C431.35170962 431.07276343 430.64459715 429.91138638 429.9375 428.75 C429.40768021 427.87989792 429.40768021 427.87989792 428.86715698 426.99221802 C422.43768753 416.42706622 416.11976883 405.79786818 409.82223511 395.15368652 C403.52311503 384.50866069 403.52311503 384.50866069 397 374 C391.27726245 364.99725046 385.90788016 355.77891632 380.4831543 346.5949707 C376.36853156 339.63541191 372.22399764 332.69765032 367.9921875 325.80859375 C367.59449661 325.15994354 367.19680573 324.51129333 366.7870636 323.84298706 C364.89296854 320.75498166 362.99204752 317.67154441 361.07983398 314.59472656 C360.41024658 313.50514648 359.74065918 312.41556641 359.05078125 311.29296875 C358.45950439 310.3393042 357.86822754 309.38563965 357.2590332 308.40307617 C356 306 356 306 356 303 C356.93457031 302.98018066 357.86914062 302.96036133 358.83203125 302.93994141 C427.36184427 301.90034038 427.36184427 301.90034038 484.40234375 266.99609375 C502.6273631 245.97565789 508.82384521 218.29654372 507 191 C504.36402435 168.54438616 493.30033428 147.60542825 476 133 C461.68978139 121.85188494 445.84834912 115.07009799 428 112 C427.07711182 111.83386703 426.15422363 111.66773407 425.20336914 111.49656677 C412.31704163 109.47477779 399.3947254 109.64655358 386.37890625 109.5859375 C383.82201025 109.56719677 381.26512024 109.54762127 378.70823669 109.5272522 C372.70575375 109.48142414 366.70327653 109.44390771 360.70071596 109.41057932 C353.18257608 109.36831314 345.66453824 109.3130464 338.14648438 109.2578125 C324.76437958 109.15955273 311.38224815 109.08065431 298 109 C298 133.09 298 157.18 298 182 C346.51 182 395.02 182 445 182 C447.30783193 187.76957983 446.45036878 189.99743859 444.40625 195.453125 C443.95926506 196.7085183 443.95926506 196.7085183 443.50325012 197.98927307 C442.517358 200.74857226 441.50877811 203.49899439 440.5 206.25 C439.45899574 209.14200159 438.42353743 212.035952 437.38825989 214.93000793 C436.6739121 216.9254961 435.95756532 218.9202697 435.23930359 220.91435242 C432.75159758 227.83459685 430.35590384 234.78120562 428.01953125 241.75390625 C427.54741714 243.15916061 427.54741714 243.15916061 427.06576538 244.59280396 C425.84853757 248.21903182 424.63252022 251.84557291 423.43066406 255.47692871 C422.60353173 257.97299533 421.76566568 260.46523195 420.92578125 262.95703125 C420.56876884 264.05115074 420.56876884 264.05115074 420.20454407 265.16737366 C419.97244736 265.85053146 419.74035065 266.53368927 419.5012207 267.23754883 C419.30663773 267.82288895 419.11205475 268.40822906 418.91157532 269.01130676 C417.60903564 271.85292808 415.73395247 274.39907129 414 277 C375.72 277 337.44 277 298 277 C298 370.39 298 463.78 298 560 C265.66 560 233.32 560 200 560 C200 465.62 200 371.24 200 274 C197.03 274 194.06 274 191 274 C191 368.38 191 462.76 191 560 C158.33 560 125.66 560 92 560 C92 435.26 92 310.52 92 182 C126.65 182 161.3 182 197 182 C197 157.91 197 133.82 197 109 C131.99 109 66.98 109 0 109 C0 73.03 0 37.06 0 0 Z " fill="#000000" transform="translate(182,208)"/>
</svg>
